<?xml version="1.0" encoding="utf-8"?>
<!-- Generator: Adobe Illustrator 23.0.6, SVG Export Plug-In . SVG Version: 6.00 Build 0)  -->
<svg version="1.1" id="Layer_1" xmlns="http://www.w3.org/2000/svg" xmlns:xlink="http://www.w3.org/1999/xlink" x="0px" y="0px"
	 viewBox="0 0 1515.7 1670.05" style="enable-background:new 0 0 1515.7 1670.05;" xml:space="preserve">
<style type="text/css">
	.st0{fill:#FFA62A;}
	.st1{fill:#8B60D6;}
</style>
<g>
	<g>
		<path class="st0" d="M991.96,364.57L846.18,1.73h-176.3l-147.56,367.3L412.98,641.19l167,259.27l97.69-291.29l82.75-246.61
			l78.79,240.33l96.46,294.21l166.18-258.91L991.96,364.57z"/>
		<path class="st0" d="M1515.7,1668.31h-257.32l-200.16-458.98H460.21c-64.35,152.48-147.74,320.76-200.16,458.98H0.32
			L412.98,641.19l167,259.27l-29.24,87.08h414.57l-29.65-90.45l166.18-258.91L1515.7,1668.31z"/>
	</g>
	<g>
		<path class="st1" d="M635.32,1209.34v460.71h243.02v-460.71H635.32z M1225.6,0L991.96,364.57L839.21,602.89l-82.39,128.57
			l-79.15-122.28L522.33,369.03L283.5,0H0l412.98,641.19l167,259.27l55.33,85.94v1.14h243.02v-1.14l57.34-89.31l166.18-258.91
			L1511.51,0H1225.6z"/>
	</g>
</g>
</svg>
